<?xml version="1.0" ?><svg viewBox="0 0 256 256" xmlns="http://www.w3.org/2000/svg"><rect fill="none" height="256" width="256"/><path d="M158.1,151.2a63.9,63.9,0,0,1-53.3-53.3h0L28.1,202.5a7.9,7.9,0,0,0,.8,10.4l14.2,14.2a7.9,7.9,0,0,0,10.4.8l104.6-76.7Z" opacity="0.2"/><circle cx="168" cy="88" fill="none" r="64" stroke="#000" stroke-linecap="round" stroke-linejoin="round" stroke-width="16"/><line fill="none" stroke="#000" stroke-linecap="round" stroke-linejoin="round" stroke-width="16" x1="213.3" x2="122.7" y1="133.3" y2="42.7"/><line fill="none" stroke="#000" stroke-linecap="round" stroke-linejoin="round" stroke-width="16" x1="100" x2="88" y1="156" y2="168"/><path d="M104.8,97.9,28.1,202.5a7.9,7.9,0,0,0,.8,10.4l14.2,14.2a7.9,7.9,0,0,0,10.4.8l104.6-76.7" fill="none" stroke="#000" stroke-linecap="round" stroke-linejoin="round" stroke-width="16"/></svg>